<mxfile host="app.diagrams.net" agent="Mozilla/5.0 (Macintosh; Intel Mac OS X 10_15_7) AppleWebKit/537.36 (KHTML, like Gecko) Chrome/136.0.0.0 Safari/537.36" version="27.0.4">
  <diagram name="PÃ¡gina-1" id="OoQFP4i5ENAfzg6p3-Mr">
    <mxGraphModel dx="1968" dy="674" grid="1" gridSize="10" guides="1" tooltips="1" connect="1" arrows="1" fold="1" page="1" pageScale="1" pageWidth="2339" pageHeight="3300" math="0" shadow="0">
      <root>
        <mxCell id="0" />
        <mxCell id="1" parent="0" />
        <mxCell id="Q_g-mYulyTmbEGPXeWd7-37" value="" style="rounded=0;whiteSpace=wrap;html=1;fillColor=none;gradientColor=#7ea6e0;strokeColor=#6c8ebf;" vertex="1" parent="1">
          <mxGeometry x="1380" y="229.5" width="240" height="100" as="geometry" />
        </mxCell>
        <mxCell id="Q_g-mYulyTmbEGPXeWd7-2" value="" style="rounded=0;whiteSpace=wrap;html=1;fillColor=none;fontColor=#000000;strokeColor=#C73500;" vertex="1" parent="1">
          <mxGeometry x="390" y="150" width="620" height="330" as="geometry" />
        </mxCell>
        <mxCell id="Q_g-mYulyTmbEGPXeWd7-6" style="edgeStyle=orthogonalEdgeStyle;rounded=0;orthogonalLoop=1;jettySize=auto;html=1;flowAnimation=1;" edge="1" parent="1" source="Q_g-mYulyTmbEGPXeWd7-1" target="Q_g-mYulyTmbEGPXeWd7-5">
          <mxGeometry relative="1" as="geometry" />
        </mxCell>
        <mxCell id="Q_g-mYulyTmbEGPXeWd7-9" value="Request" style="edgeLabel;html=1;align=center;verticalAlign=middle;resizable=0;points=[];" vertex="1" connectable="0" parent="Q_g-mYulyTmbEGPXeWd7-6">
          <mxGeometry x="-0.1822" y="-1" relative="1" as="geometry">
            <mxPoint as="offset" />
          </mxGeometry>
        </mxCell>
        <mxCell id="Q_g-mYulyTmbEGPXeWd7-15" style="edgeStyle=orthogonalEdgeStyle;rounded=0;orthogonalLoop=1;jettySize=auto;html=1;flowAnimation=1;" edge="1" parent="1" source="Q_g-mYulyTmbEGPXeWd7-1" target="Q_g-mYulyTmbEGPXeWd7-14">
          <mxGeometry relative="1" as="geometry">
            <Array as="points">
              <mxPoint x="710" y="280" />
              <mxPoint x="710" y="280" />
            </Array>
          </mxGeometry>
        </mxCell>
        <mxCell id="Q_g-mYulyTmbEGPXeWd7-1" value="checkAddress" style="sketch=0;outlineConnect=0;fontColor=#232F3E;gradientColor=none;fillColor=#ED7100;strokeColor=none;dashed=0;verticalLabelPosition=bottom;verticalAlign=top;align=center;html=1;fontSize=12;fontStyle=0;aspect=fixed;pointerEvents=1;shape=mxgraph.aws4.lambda_function;" vertex="1" parent="1">
          <mxGeometry x="500" y="240" width="80" height="80" as="geometry" />
        </mxCell>
        <mxCell id="Q_g-mYulyTmbEGPXeWd7-4" value="Flow Create Oppotunity" style="text;html=1;align=center;verticalAlign=middle;whiteSpace=wrap;rounded=0;" vertex="1" parent="1">
          <mxGeometry x="390" y="110" width="150" height="30" as="geometry" />
        </mxCell>
        <mxCell id="Q_g-mYulyTmbEGPXeWd7-7" style="edgeStyle=orthogonalEdgeStyle;rounded=0;orthogonalLoop=1;jettySize=auto;html=1;flowAnimation=1;" edge="1" parent="1" source="Q_g-mYulyTmbEGPXeWd7-5" target="Q_g-mYulyTmbEGPXeWd7-1">
          <mxGeometry relative="1" as="geometry" />
        </mxCell>
        <mxCell id="Q_g-mYulyTmbEGPXeWd7-5" value="First Americ&lt;span style=&quot;background-color: light-dark(#ffffff, var(--ge-dark-color, #121212)); color: light-dark(rgb(0, 0, 0), rgb(255, 255, 255));&quot;&gt;an&lt;/span&gt;" style="image;aspect=fixed;html=1;points=[];align=center;fontSize=12;image=img/lib/azure2/app_services/API_Management_Services.svg;" vertex="1" parent="1">
          <mxGeometry x="410" y="170" width="68.33" height="63.08" as="geometry" />
        </mxCell>
        <mxCell id="Q_g-mYulyTmbEGPXeWd7-10" value="&lt;div&gt;firstAmericanDTAResponse&lt;/div&gt;&lt;div&gt;&lt;br&gt;&lt;/div&gt;" style="text;html=1;align=center;verticalAlign=middle;whiteSpace=wrap;rounded=0;" vertex="1" parent="1">
          <mxGeometry x="530" y="170" width="60" height="30" as="geometry" />
        </mxCell>
        <mxCell id="Q_g-mYulyTmbEGPXeWd7-12" value="" style="rounded=0;whiteSpace=wrap;html=1;fillColor=none;fontColor=#000000;strokeColor=#C73500;" vertex="1" parent="1">
          <mxGeometry x="1070" y="150" width="610" height="330" as="geometry" />
        </mxCell>
        <mxCell id="Q_g-mYulyTmbEGPXeWd7-13" value="Prequal" style="text;html=1;align=center;verticalAlign=middle;whiteSpace=wrap;rounded=0;" vertex="1" parent="1">
          <mxGeometry x="1070" y="110" width="150" height="30" as="geometry" />
        </mxCell>
        <mxCell id="Q_g-mYulyTmbEGPXeWd7-19" style="edgeStyle=orthogonalEdgeStyle;rounded=0;orthogonalLoop=1;jettySize=auto;html=1;flowAnimation=1;" edge="1" parent="1" source="Q_g-mYulyTmbEGPXeWd7-14" target="Q_g-mYulyTmbEGPXeWd7-18">
          <mxGeometry relative="1" as="geometry">
            <Array as="points">
              <mxPoint x="790" y="401" />
            </Array>
          </mxGeometry>
        </mxCell>
        <mxCell id="Q_g-mYulyTmbEGPXeWd7-25" style="edgeStyle=orthogonalEdgeStyle;rounded=0;orthogonalLoop=1;jettySize=auto;html=1;flowAnimation=1;" edge="1" parent="1" source="Q_g-mYulyTmbEGPXeWd7-14" target="Q_g-mYulyTmbEGPXeWd7-24">
          <mxGeometry relative="1" as="geometry" />
        </mxCell>
        <mxCell id="Q_g-mYulyTmbEGPXeWd7-14" value="CreateLoan" style="sketch=0;outlineConnect=0;fontColor=#232F3E;gradientColor=none;fillColor=#ED7100;strokeColor=none;dashed=0;verticalLabelPosition=bottom;verticalAlign=top;align=center;html=1;fontSize=12;fontStyle=0;aspect=fixed;pointerEvents=1;shape=mxgraph.aws4.lambda_function;" vertex="1" parent="1">
          <mxGeometry x="750" y="240" width="80" height="80" as="geometry" />
        </mxCell>
        <mxCell id="Q_g-mYulyTmbEGPXeWd7-16" value="&lt;div&gt;firstAmericanDTAResponse&lt;/div&gt;&lt;div&gt;&lt;br&gt;&lt;/div&gt;" style="text;html=1;align=center;verticalAlign=middle;whiteSpace=wrap;rounded=0;" vertex="1" parent="1">
          <mxGeometry x="630" y="250" width="60" height="30" as="geometry" />
        </mxCell>
        <mxCell id="Q_g-mYulyTmbEGPXeWd7-17" value="Save and Continue" style="rounded=1;fillColor=#f5f5f5;strokeColor=#666666;html=1;whiteSpace=wrap;align=center;verticalAlign=middle;fontStyle=0;fontSize=12;sketch=0;gradientColor=#b3b3b3;" vertex="1" parent="1">
          <mxGeometry x="617" y="298.5" width="86" height="33" as="geometry" />
        </mxCell>
        <mxCell id="Q_g-mYulyTmbEGPXeWd7-18" value="Loan" style="outlineConnect=0;dashed=0;verticalLabelPosition=bottom;verticalAlign=top;align=center;html=1;shape=mxgraph.aws3.dynamo_db;fillColor=#2E73B8;gradientColor=none;" vertex="1" parent="1">
          <mxGeometry x="840" y="360" width="72" height="81" as="geometry" />
        </mxCell>
        <mxCell id="Q_g-mYulyTmbEGPXeWd7-20" value="" style="sketch=0;outlineConnect=0;fontColor=#232F3E;gradientColor=none;fillColor=#232F3D;strokeColor=none;dashed=0;verticalLabelPosition=bottom;verticalAlign=top;align=center;html=1;fontSize=12;fontStyle=0;aspect=fixed;pointerEvents=1;shape=mxgraph.aws4.json_script;" vertex="1" parent="1">
          <mxGeometry x="740" y="376.5" width="35.08" height="48" as="geometry" />
        </mxCell>
        <mxCell id="Q_g-mYulyTmbEGPXeWd7-21" value="&lt;div&gt;firstAmericanDTAResponse&lt;/div&gt;&lt;div&gt;&lt;br&gt;&lt;/div&gt;" style="text;html=1;align=center;verticalAlign=middle;whiteSpace=wrap;rounded=0;" vertex="1" parent="1">
          <mxGeometry x="720" y="441" width="60" height="30" as="geometry" />
        </mxCell>
        <mxCell id="Q_g-mYulyTmbEGPXeWd7-24" value="" style="image;html=1;image=img/lib/clip_art/finance/Dollar_128x128.png" vertex="1" parent="1">
          <mxGeometry x="880" y="240" width="80" height="80" as="geometry" />
        </mxCell>
        <mxCell id="Q_g-mYulyTmbEGPXeWd7-26" value="Loan Id" style="text;html=1;align=center;verticalAlign=middle;whiteSpace=wrap;rounded=0;" vertex="1" parent="1">
          <mxGeometry x="890" y="190" width="60" height="30" as="geometry" />
        </mxCell>
        <mxCell id="Q_g-mYulyTmbEGPXeWd7-30" style="edgeStyle=orthogonalEdgeStyle;rounded=0;orthogonalLoop=1;jettySize=auto;html=1;flowAnimation=1;" edge="1" parent="1" source="Q_g-mYulyTmbEGPXeWd7-27" target="Q_g-mYulyTmbEGPXeWd7-29">
          <mxGeometry relative="1" as="geometry">
            <Array as="points">
              <mxPoint x="1270" y="257" />
            </Array>
          </mxGeometry>
        </mxCell>
        <mxCell id="Q_g-mYulyTmbEGPXeWd7-27" value="On-Screen" style="rounded=1;fillColor=#f5f5f5;strokeColor=#666666;html=1;whiteSpace=wrap;align=center;verticalAlign=middle;fontStyle=0;fontSize=12;sketch=0;gradientColor=#b3b3b3;" vertex="1" parent="1">
          <mxGeometry x="1100" y="240" width="86" height="33" as="geometry" />
        </mxCell>
        <mxCell id="Q_g-mYulyTmbEGPXeWd7-31" style="edgeStyle=orthogonalEdgeStyle;rounded=0;orthogonalLoop=1;jettySize=auto;html=1;flowAnimation=1;" edge="1" parent="1" source="Q_g-mYulyTmbEGPXeWd7-28" target="Q_g-mYulyTmbEGPXeWd7-29">
          <mxGeometry relative="1" as="geometry">
            <Array as="points">
              <mxPoint x="1270" y="390" />
            </Array>
          </mxGeometry>
        </mxCell>
        <mxCell id="Q_g-mYulyTmbEGPXeWd7-28" value="By Email" style="rounded=1;fillColor=#f5f5f5;strokeColor=#666666;html=1;whiteSpace=wrap;align=center;verticalAlign=middle;fontStyle=0;fontSize=12;sketch=0;gradientColor=#b3b3b3;" vertex="1" parent="1">
          <mxGeometry x="1100" y="376.5" width="86" height="33" as="geometry" />
        </mxCell>
        <mxCell id="Q_g-mYulyTmbEGPXeWd7-29" value="LaunPrequal" style="sketch=0;outlineConnect=0;fontColor=#232F3E;gradientColor=none;fillColor=#ED7100;strokeColor=none;dashed=0;verticalLabelPosition=bottom;verticalAlign=top;align=center;html=1;fontSize=12;fontStyle=0;aspect=fixed;pointerEvents=1;shape=mxgraph.aws4.lambda_function;" vertex="1" parent="1">
          <mxGeometry x="1230" y="280" width="80" height="80" as="geometry" />
        </mxCell>
        <mxCell id="Q_g-mYulyTmbEGPXeWd7-32" value="" style="rounded=0;whiteSpace=wrap;html=1;fillColor=none;fontColor=#000000;strokeColor=#C73500;" vertex="1" parent="1">
          <mxGeometry x="1370" y="190" width="260" height="230" as="geometry" />
        </mxCell>
        <mxCell id="Q_g-mYulyTmbEGPXeWd7-33" value="Invoke" style="text;html=1;align=center;verticalAlign=middle;whiteSpace=wrap;rounded=0;" vertex="1" parent="1">
          <mxGeometry x="1370" y="160" width="110" height="20" as="geometry" />
        </mxCell>
        <mxCell id="Q_g-mYulyTmbEGPXeWd7-34" style="edgeStyle=orthogonalEdgeStyle;rounded=0;orthogonalLoop=1;jettySize=auto;html=1;entryX=0;entryY=0.567;entryDx=0;entryDy=0;entryPerimeter=0;flowAnimation=1;" edge="1" parent="1" source="Q_g-mYulyTmbEGPXeWd7-29" target="Q_g-mYulyTmbEGPXeWd7-32">
          <mxGeometry relative="1" as="geometry" />
        </mxCell>
        <mxCell id="Q_g-mYulyTmbEGPXeWd7-42" style="edgeStyle=orthogonalEdgeStyle;rounded=0;orthogonalLoop=1;jettySize=auto;html=1;flowAnimation=0;" edge="1" parent="1" source="Q_g-mYulyTmbEGPXeWd7-35">
          <mxGeometry relative="1" as="geometry">
            <mxPoint x="1800" y="265" as="targetPoint" />
          </mxGeometry>
        </mxCell>
        <mxCell id="Q_g-mYulyTmbEGPXeWd7-35" value="CheckAddress" style="sketch=0;outlineConnect=0;fontColor=#232F3E;gradientColor=none;fillColor=#ED7100;strokeColor=none;dashed=0;verticalLabelPosition=bottom;verticalAlign=top;align=center;html=1;fontSize=12;fontStyle=0;aspect=fixed;pointerEvents=1;shape=mxgraph.aws4.lambda_function;" vertex="1" parent="1">
          <mxGeometry x="1473.25" y="243.25" width="43.5" height="43.5" as="geometry" />
        </mxCell>
        <mxCell id="Q_g-mYulyTmbEGPXeWd7-38" value="!loan.opportunity.firstAmericanDTAResponse" style="text;html=1;align=center;verticalAlign=middle;whiteSpace=wrap;rounded=0;" vertex="1" parent="1">
          <mxGeometry x="1440" y="200" width="110" height="30" as="geometry" />
        </mxCell>
        <mxCell id="Q_g-mYulyTmbEGPXeWd7-39" value="CheckAddress" style="sketch=0;outlineConnect=0;fontColor=#232F3E;gradientColor=none;fillColor=#ED7100;strokeColor=none;dashed=0;verticalLabelPosition=bottom;verticalAlign=top;align=center;html=1;fontSize=12;fontStyle=0;aspect=fixed;pointerEvents=1;shape=mxgraph.aws4.lambda_function;" vertex="1" parent="1">
          <mxGeometry x="1473.25" y="350" width="43.5" height="43.5" as="geometry" />
        </mxCell>
        <mxCell id="Q_g-mYulyTmbEGPXeWd7-40" value="" style="image;aspect=fixed;html=1;points=[];align=center;fontSize=12;image=img/lib/azure2/general/Globe_Error.svg;" vertex="1" parent="1">
          <mxGeometry x="1835" y="471" width="46" height="54.21" as="geometry" />
        </mxCell>
        <mxCell id="Q_g-mYulyTmbEGPXeWd7-43" value="" style="image;aspect=fixed;html=1;points=[];align=center;fontSize=12;image=img/lib/azure2/general/Globe_Success.svg;" vertex="1" parent="1">
          <mxGeometry x="1830" y="240" width="56.00000000000001" height="66" as="geometry" />
        </mxCell>
        <mxCell id="Q_g-mYulyTmbEGPXeWd7-45" value="&lt;h1 style=&quot;margin-top: 0px;&quot;&gt;Invoke&lt;/h1&gt;&lt;p&gt;InvocaciÃ³n controlada basada en que el prestamo no haya generado el objeto&amp;nbsp;&lt;br&gt;&lt;span style=&quot;background-color: transparent; color: light-dark(rgb(0, 0, 0), rgb(255, 255, 255));&quot;&gt;firstAmericanDTAResponse&lt;/span&gt;&lt;/p&gt;&lt;div&gt;&lt;br style=&quot;text-align: center;&quot;&gt;&lt;/div&gt;" style="text;html=1;whiteSpace=wrap;overflow=hidden;rounded=0;" vertex="1" parent="1">
          <mxGeometry x="1790" y="320" width="180" height="120" as="geometry" />
        </mxCell>
        <mxCell id="Q_g-mYulyTmbEGPXeWd7-46" style="edgeStyle=orthogonalEdgeStyle;rounded=0;orthogonalLoop=1;jettySize=auto;html=1;entryX=-0.039;entryY=0.401;entryDx=0;entryDy=0;entryPerimeter=0;" edge="1" parent="1" source="Q_g-mYulyTmbEGPXeWd7-39" target="Q_g-mYulyTmbEGPXeWd7-40">
          <mxGeometry relative="1" as="geometry">
            <Array as="points">
              <mxPoint x="1720" y="372" />
              <mxPoint x="1720" y="493" />
            </Array>
          </mxGeometry>
        </mxCell>
        <mxCell id="Q_g-mYulyTmbEGPXeWd7-47" value="&lt;h1 style=&quot;margin-top: 0px;&quot;&gt;Re - Invoke&lt;/h1&gt;&lt;p&gt;InvocaciÃ³n adicional inncesaria dentro del fliujo&lt;/p&gt;&lt;div&gt;&lt;br style=&quot;text-align: center;&quot;&gt;&lt;/div&gt;" style="text;html=1;whiteSpace=wrap;overflow=hidden;rounded=0;" vertex="1" parent="1">
          <mxGeometry x="1800" y="540" width="180" height="120" as="geometry" />
        </mxCell>
        <mxCell id="Q_g-mYulyTmbEGPXeWd7-48" value="82efcac18c3fcf8c922f135efa93091cd367e727" style="text;whiteSpace=wrap;" vertex="1" parent="1">
          <mxGeometry x="1800" y="650" width="280" height="40" as="geometry" />
        </mxCell>
        <mxCell id="Q_g-mYulyTmbEGPXeWd7-49" value="" style="sketch=0;pointerEvents=1;shadow=0;dashed=0;html=1;strokeColor=#b85450;fillColor=#f8cecc;labelPosition=center;verticalLabelPosition=bottom;verticalAlign=top;align=center;outlineConnect=0;shape=mxgraph.veeam2.command_line;gradientColor=#ea6b66;" vertex="1" parent="1">
          <mxGeometry x="1750" y="650" width="28.000000000000004" height="28.000000000000004" as="geometry" />
        </mxCell>
      </root>
    </mxGraphModel>
  </diagram>
</mxfile>
